[
  {
    "EventType": "Text",
    "Text": "Piano",
    "AbsoluteTime": 0
  },
  {
    "EventType": "TimeSignatureEvent",
    "AbsoluteTime": 0
  },
  {
    "EventType": "KeySignatureEvent",
    "AbsoluteTime": 0
  },
  {
    "EventType": "Tempo",
    "MicrosecondsPerQuarterNote": 500000,
    "BPM": 120.0,
    "AbsoluteTime": 0
  },
  {
    "EventType": "ControlChange",
    "Controller": 121,
    "ControllerValue": 0,
    "AbsoluteTime": 0
  },
  {
    "EventType": "ControlChange",
    "Controller": 100,
    "ControllerValue": 0,
    "AbsoluteTime": 0
  },
  {
    "EventType": "ControlChange",
    "Controller": 101,
    "ControllerValue": 0,
    "AbsoluteTime": 0
  },
  {
    "EventType": "ControlChange",
    "Controller": 6,
    "ControllerValue": 12,
    "AbsoluteTime": 0
  },
  {
    "EventType": "ControlChange",
    "Controller": 100,
    "ControllerValue": 127,
    "AbsoluteTime": 0
  },
  {
    "EventType": "ControlChange",
    "Controller": 101,
    "ControllerValue": 127,
    "AbsoluteTime": 0
  },
  {
    "EventType": "PatchChangeEvent",
    "AbsoluteTime": 0
  },
  {
    "EventType": "ControlChange",
    "Controller": 7,
    "ControllerValue": 100,
    "AbsoluteTime": 0
  },
  {
    "EventType": "ControlChange",
    "Controller": 10,
    "ControllerValue": 64,
    "AbsoluteTime": 0
  },
  {
    "EventType": "ControlChange",
    "Controller": 91,
    "ControllerValue": 0,
    "AbsoluteTime": 0
  },
  {
    "EventType": "ControlChange",
    "Controller": 93,
    "ControllerValue": 0,
    "AbsoluteTime": 0
  },
  {
    "EventType": "RawMetaEvent",
    "AbsoluteTime": 0
  },
  {
    "EventType": "NoteOn",
    "NoteNumber": 71,
    "Velocity": 80,
    "AbsoluteTime": 0
  },
  {
    "EventType": "NoteOn",
    "NoteNumber": 91,
    "Velocity": 80,
    "AbsoluteTime": 0
  },
  {
    "EventType": "NoteOn",
    "NoteNumber": 71,
    "Velocity": 0,
    "AbsoluteTime": 479
  },
  {
    "EventType": "NoteOn",
    "NoteNumber": 91,
    "Velocity": 0,
    "AbsoluteTime": 479
  },
  {
    "EventType": "NoteOn",
    "NoteNumber": 65,
    "Velocity": 80,
    "AbsoluteTime": 960
  },
  {
    "EventType": "NoteOn",
    "NoteNumber": 65,
    "Velocity": 0,
    "AbsoluteTime": 1439
  },
  {
    "EventType": "NoteOn",
    "NoteNumber": 65,
    "Velocity": 80,
    "AbsoluteTime": 1920
  },
  {
    "EventType": "NoteOn",
    "NoteNumber": 65,
    "Velocity": 0,
    "AbsoluteTime": 2399
  },
  {
    "EventType": "NoteOn",
    "NoteNumber": 69,
    "Velocity": 80,
    "AbsoluteTime": 2880
  },
  {
    "EventType": "NoteOn",
    "NoteNumber": 69,
    "Velocity": 0,
    "AbsoluteTime": 3359
  },
  {
    "EventType": "NoteOn",
    "NoteNumber": 71,
    "Velocity": 80,
    "AbsoluteTime": 3840
  },
  {
    "EventType": "NoteOn",
    "NoteNumber": 71,
    "Velocity": 0,
    "AbsoluteTime": 4319
  },
  {
    "EventType": "NoteOn",
    "NoteNumber": 72,
    "Velocity": 80,
    "AbsoluteTime": 4800
  },
  {
    "EventType": "NoteOn",
    "NoteNumber": 72,
    "Velocity": 0,
    "AbsoluteTime": 5279
  },
  {
    "EventType": "NoteOn",
    "NoteNumber": 72,
    "Velocity": 80,
    "AbsoluteTime": 5760
  },
  {
    "EventType": "NoteOn",
    "NoteNumber": 72,
    "Velocity": 0,
    "AbsoluteTime": 6239
  },
  {
    "EventType": "NoteOn",
    "NoteNumber": 71,
    "Velocity": 80,
    "AbsoluteTime": 6240
  },
  {
    "EventType": "NoteOn",
    "NoteNumber": 71,
    "Velocity": 0,
    "AbsoluteTime": 6719
  },
  {
    "EventType": "NoteOn",
    "NoteNumber": 69,
    "Velocity": 80,
    "AbsoluteTime": 6720
  },
  {
    "EventType": "NoteOn",
    "NoteNumber": 69,
    "Velocity": 0,
    "AbsoluteTime": 7199
  },
  {
    "EventType": "NoteOn",
    "NoteNumber": 67,
    "Velocity": 80,
    "AbsoluteTime": 7200
  },
  {
    "EventType": "NoteOn",
    "NoteNumber": 67,
    "Velocity": 0,
    "AbsoluteTime": 7679
  },
  {
    "EventType": "NoteOn",
    "NoteNumber": 65,
    "Velocity": 80,
    "AbsoluteTime": 7680
  },
  {
    "EventType": "NoteOn",
    "NoteNumber": 65,
    "Velocity": 0,
    "AbsoluteTime": 8159
  },
  {
    "EventType": "NoteOn",
    "NoteNumber": 64,
    "Velocity": 80,
    "AbsoluteTime": 8160
  },
  {
    "EventType": "NoteOn",
    "NoteNumber": 64,
    "Velocity": 0,
    "AbsoluteTime": 8639
  },
  {
    "EventType": "NoteOn",
    "NoteNumber": 62,
    "Velocity": 80,
    "AbsoluteTime": 8640
  },
  {
    "EventType": "NoteOn",
    "NoteNumber": 62,
    "Velocity": 0,
    "AbsoluteTime": 9119
  },
  {
    "EventType": "NoteOn",
    "NoteNumber": 60,
    "Velocity": 80,
    "AbsoluteTime": 9120
  },
  {
    "EventType": "NoteOn",
    "NoteNumber": 60,
    "Velocity": 0,
    "AbsoluteTime": 9599
  },
  {
    "EventType": "NoteOn",
    "NoteNumber": 60,
    "Velocity": 80,
    "AbsoluteTime": 9600
  },
  {
    "EventType": "NoteOn",
    "NoteNumber": 60,
    "Velocity": 0,
    "AbsoluteTime": 10079
  },
  {
    "EventType": "NoteOn",
    "NoteNumber": 60,
    "Velocity": 80,
    "AbsoluteTime": 10080
  },
  {
    "EventType": "NoteOn",
    "NoteNumber": 60,
    "Velocity": 0,
    "AbsoluteTime": 10559
  },
  {
    "EventType": "NoteOn",
    "NoteNumber": 60,
    "Velocity": 80,
    "AbsoluteTime": 10560
  },
  {
    "EventType": "NoteOn",
    "NoteNumber": 60,
    "Velocity": 0,
    "AbsoluteTime": 11039
  },
  {
    "EventType": "NoteOn",
    "NoteNumber": 60,
    "Velocity": 80,
    "AbsoluteTime": 11040
  },
  {
    "EventType": "NoteOn",
    "NoteNumber": 60,
    "Velocity": 0,
    "AbsoluteTime": 11519
  },
  {
    "EventType": "MetaEvent",
    "AbsoluteTime": 11520
  },
  {
    "EventType": "Text",
    "Text": "Piano",
    "AbsoluteTime": 0
  },
  {
    "EventType": "KeySignatureEvent",
    "AbsoluteTime": 0
  },
  {
    "EventType": "RawMetaEvent",
    "AbsoluteTime": 0
  },
  {
    "EventType": "NoteOn",
    "NoteNumber": 41,
    "Velocity": 80,
    "AbsoluteTime": 0
  },
  {
    "EventType": "NoteOn",
    "NoteNumber": 41,
    "Velocity": 0,
    "AbsoluteTime": 479
  },
  {
    "EventType": "NoteOn",
    "NoteNumber": 48,
    "Velocity": 80,
    "AbsoluteTime": 480
  },
  {
    "EventType": "NoteOn",
    "NoteNumber": 48,
    "Velocity": 0,
    "AbsoluteTime": 959
  },
  {
    "EventType": "NoteOn",
    "NoteNumber": 52,
    "Velocity": 80,
    "AbsoluteTime": 960
  },
  {
    "EventType": "NoteOn",
    "NoteNumber": 52,
    "Velocity": 0,
    "AbsoluteTime": 1439
  },
  {
    "EventType": "NoteOn",
    "NoteNumber": 53,
    "Velocity": 80,
    "AbsoluteTime": 1440
  },
  {
    "EventType": "NoteOn",
    "NoteNumber": 53,
    "Velocity": 0,
    "AbsoluteTime": 1919
  },
  {
    "EventType": "NoteOn",
    "NoteNumber": 50,
    "Velocity": 80,
    "AbsoluteTime": 1920
  },
  {
    "EventType": "NoteOn",
    "NoteNumber": 50,
    "Velocity": 0,
    "AbsoluteTime": 2399
  },
  {
    "EventType": "NoteOn",
    "NoteNumber": 43,
    "Velocity": 80,
    "AbsoluteTime": 2880
  },
  {
    "EventType": "NoteOn",
    "NoteNumber": 43,
    "Velocity": 0,
    "AbsoluteTime": 3359
  },
  {
    "EventType": "NoteOn",
    "NoteNumber": 47,
    "Velocity": 80,
    "AbsoluteTime": 3360
  },
  {
    "EventType": "NoteOn",
    "NoteNumber": 47,
    "Velocity": 0,
    "AbsoluteTime": 3839
  },
  {
    "EventType": "NoteOn",
    "NoteNumber": 48,
    "Velocity": 80,
    "AbsoluteTime": 3840
  },
  {
    "EventType": "NoteOn",
    "NoteNumber": 48,
    "Velocity": 0,
    "AbsoluteTime": 4319
  },
  {
    "EventType": "NoteOn",
    "NoteNumber": 45,
    "Velocity": 80,
    "AbsoluteTime": 4800
  },
  {
    "EventType": "NoteOn",
    "NoteNumber": 45,
    "Velocity": 0,
    "AbsoluteTime": 5279
  },
  {
    "EventType": "NoteOn",
    "NoteNumber": 47,
    "Velocity": 80,
    "AbsoluteTime": 5760
  },
  {
    "EventType": "NoteOn",
    "NoteNumber": 47,
    "Velocity": 0,
    "AbsoluteTime": 6239
  },
  {
    "EventType": "NoteOn",
    "NoteNumber": 48,
    "Velocity": 80,
    "AbsoluteTime": 6240
  },
  {
    "EventType": "NoteOn",
    "NoteNumber": 48,
    "Velocity": 0,
    "AbsoluteTime": 6719
  },
  {
    "EventType": "NoteOn",
    "NoteNumber": 50,
    "Velocity": 80,
    "AbsoluteTime": 6720
  },
  {
    "EventType": "NoteOn",
    "NoteNumber": 50,
    "Velocity": 0,
    "AbsoluteTime": 7199
  },
  {
    "EventType": "NoteOn",
    "NoteNumber": 48,
    "Velocity": 80,
    "AbsoluteTime": 7680
  },
  {
    "EventType": "NoteOn",
    "NoteNumber": 48,
    "Velocity": 0,
    "AbsoluteTime": 8159
  },
  {
    "EventType": "NoteOn",
    "NoteNumber": 47,
    "Velocity": 80,
    "AbsoluteTime": 8640
  },
  {
    "EventType": "NoteOn",
    "NoteNumber": 47,
    "Velocity": 0,
    "AbsoluteTime": 9119
  },
  {
    "EventType": "NoteOn",
    "NoteNumber": 48,
    "Velocity": 80,
    "AbsoluteTime": 9120
  },
  {
    "EventType": "NoteOn",
    "NoteNumber": 48,
    "Velocity": 0,
    "AbsoluteTime": 9599
  },
  {
    "EventType": "NoteOn",
    "NoteNumber": 48,
    "Velocity": 80,
    "AbsoluteTime": 9600
  },
  {
    "EventType": "NoteOn",
    "NoteNumber": 48,
    "Velocity": 0,
    "AbsoluteTime": 10079
  },
  {
    "EventType": "NoteOn",
    "NoteNumber": 50,
    "Velocity": 80,
    "AbsoluteTime": 10560
  },
  {
    "EventType": "NoteOn",
    "NoteNumber": 50,
    "Velocity": 0,
    "AbsoluteTime": 11039
  },
  {
    "EventType": "NoteOn",
    "NoteNumber": 48,
    "Velocity": 80,
    "AbsoluteTime": 11040
  },
  {
    "EventType": "NoteOn",
    "NoteNumber": 48,
    "Velocity": 0,
    "AbsoluteTime": 11519
  },
  {
    "EventType": "MetaEvent",
    "AbsoluteTime": 11520
  }
]